<svg xmlns="http://www.w3.org/2000/svg" viewBox="0 0 400 300" width="400" height="300">
  <defs>
    <linearGradient id="citGrad1" x1="0%" y1="0%" x2="100%" y2="100%">
      <stop offset="0%" style="stop-color:#059669;stop-opacity:1" />
      <stop offset="100%" style="stop-color:#047857;stop-opacity:1" />
    </linearGradient>
    <linearGradient id="citGrad2" x1="0%" y1="0%" x2="100%" y2="100%">
      <stop offset="0%" style="stop-color:#DC2626;stop-opacity:1" />
      <stop offset="100%" style="stop-color:#B91C1C;stop-opacity:1" />
    </linearGradient>
    <linearGradient id="citGrad3" x1="0%" y1="0%" x2="100%" y2="100%">
      <stop offset="0%" style="stop-color:#2563EB;stop-opacity:1" />
      <stop offset="100%" style="stop-color:#1D4ED8;stop-opacity:1" />
    </linearGradient>
  </defs>
  
  <!-- Background -->
  <rect width="400" height="300" fill="#FEFEFE"/>
  
  <!-- APA Section -->
  <rect x="30" y="50" width="100" height="120" rx="8" fill="white" stroke="url(#citGrad1)" stroke-width="3"/>
  <rect x="40" y="65" width="30" height="8" rx="4" fill="url(#citGrad1)"/>
  <text x="45" y="85" font-family="Arial, sans-serif" font-size="12" font-weight="bold" fill="#047857">APA</text>
  <rect x="40" y="95" width="80" height="2" rx="1" fill="#D1D5DB"/>
  <rect x="40" y="100" width="75" height="2" rx="1" fill="#D1D5DB"/>
  <rect x="40" y="105" width="70" height="2" rx="1" fill="#D1D5DB"/>
  <rect x="40" y="115" width="60" height="2" rx="1" fill="#047857"/>
  <rect x="40" y="120" width="65" height="2" rx="1" fill="#D1D5DB"/>
  <rect x="40" y="125" width="70" height="2" rx="1" fill="#D1D5DB"/>
  <rect x="40" y="135" width="55" height="2" rx="1" fill="#047857"/>
  <rect x="40" y="140" width="60" height="2" rx="1" fill="#D1D5DB"/>
  <rect x="40" y="145" width="65" height="2" rx="1" fill="#D1D5DB"/>
  <rect x="40" y="155" width="50" height="2" rx="1" fill="#047857"/>
  
  <!-- MLA Section -->
  <rect x="150" y="50" width="100" height="120" rx="8" fill="white" stroke="url(#citGrad2)" stroke-width="3"/>
  <rect x="160" y="65" width="30" height="8" rx="4" fill="url(#citGrad2)"/>
  <text x="165" y="85" font-family="Arial, sans-serif" font-size="12" font-weight="bold" fill="#B91C1C">MLA</text>
  <rect x="160" y="95" width="80" height="2" rx="1" fill="#D1D5DB"/>
  <rect x="160" y="100" width="75" height="2" rx="1" fill="#D1D5DB"/>
  <rect x="160" y="105" width="70" height="2" rx="1" fill="#D1D5DB"/>
  <rect x="160" y="115" width="60" height="2" rx="1" fill="#B91C1C"/>
  <rect x="160" y="120" width="65" height="2" rx="1" fill="#D1D5DB"/>
  <rect x="160" y="125" width="70" height="2" rx="1" fill="#D1D5DB"/>
  <rect x="160" y="135" width="55" height="2" rx="1" fill="#B91C1C"/>
  <rect x="160" y="140" width="60" height="2" rx="1" fill="#D1D5DB"/>
  <rect x="160" y="145" width="65" height="2" rx="1" fill="#D1D5DB"/>
  <rect x="160" y="155" width="50" height="2" rx="1" fill="#B91C1C"/>
  
  <!-- Chicago Section -->
  <rect x="270" y="50" width="100" height="120" rx="8" fill="white" stroke="url(#citGrad3)" stroke-width="3"/>
  <rect x="280" y="65" width="50" height="8" rx="4" fill="url(#citGrad3)"/>
  <text x="285" y="85" font-family="Arial, sans-serif" font-size="11" font-weight="bold" fill="#1D4ED8">Chicago</text>
  <rect x="280" y="95" width="80" height="2" rx="1" fill="#D1D5DB"/>
  <rect x="280" y="100" width="75" height="2" rx="1" fill="#D1D5DB"/>
  <rect x="280" y="105" width="70" height="2" rx="1" fill="#D1D5DB"/>
  <rect x="280" y="115" width="60" height="2" rx="1" fill="#1D4ED8"/>
  <rect x="280" y="120" width="65" height="2" rx="1" fill="#D1D5DB"/>
  <rect x="280" y="125" width="70" height="2" rx="1" fill="#D1D5DB"/>
  <rect x="280" y="135" width="55" height="2" rx="1" fill="#1D4ED8"/>
  <rect x="280" y="140" width="60" height="2" rx="1" fill="#D1D5DB"/>
  <rect x="280" y="145" width="65" height="2" rx="1" fill="#D1D5DB"/>
  <rect x="280" y="155" width="50" height="2" rx="1" fill="#1D4ED8"/>
  
  <!-- Books at bottom -->
  <rect x="80" y="220" width="240" height="60" rx="6" fill="#F3F4F6" stroke="#E5E7EB" stroke-width="1"/>
  <rect x="90" y="230" width="20" height="40" rx="2" fill="url(#citGrad1)"/>
  <rect x="120" y="225" width="20" height="45" rx="2" fill="url(#citGrad2)"/>
  <rect x="150" y="235" width="20" height="35" rx="2" fill="url(#citGrad3)"/>
  <rect x="180" y="228" width="20" height="42" rx="2" fill="#059669"/>
  <rect x="210" y="232" width="20" height="38" rx="2" fill="#DC2626"/>
  <rect x="240" y="226" width="20" height="44" rx="2" fill="#2563EB"/>
  <rect x="270" y="234" width="20" height="36" rx="2" fill="#7C3AED"/>
  <rect x="300" y="229" width="20" height="41" rx="2" fill="#F59E0B"/>
  
  <!-- Quote marks -->
  <text x="50" y="30" font-family="Georgia, serif" font-size="36" fill="#059669" opacity="0.3">"</text>
  <text x="340" y="200" font-family="Georgia, serif" font-size="36" fill="#DC2626" opacity="0.3">"</text>
</svg> 